<svg width="286" height="71" viewBox="0 0 286 71" fill="none" xmlns="http://www.w3.org/2000/svg">
<path d="M41.76 69L37.536 52.872H19.2L15.072 69H0.48L18.624 1.992H38.976L57.12 69H41.76ZM28.8 15.912H28.032L21.504 41.256H35.328L28.8 15.912ZM79.0665 69H64.8585V1.992H90.7785C94.0425 1.992 96.9545 2.504 99.5145 3.528C102.075 4.488 104.219 5.896 105.947 7.752C107.739 9.608 109.083 11.848 109.979 14.472C110.875 17.096 111.323 20.04 111.323 23.304C111.323 28.04 110.299 32.104 108.25 35.496C106.203 38.888 103.291 41.128 99.5145 42.216L112.667 69H96.9225L85.6905 44.136H79.0665V69ZM87.3225 33C90.7145 33 93.0505 32.36 94.3305 31.08C95.6745 29.8 96.3465 27.688 96.3465 24.744V21.864C96.3465 18.92 95.6745 16.808 94.3305 15.528C93.0505 14.248 90.7145 13.608 87.3225 13.608H79.0665V33H87.3225ZM151.125 13.8V69H136.725V13.8H117.429V1.992H170.421V13.8H151.125ZM200.432 70.152C194.8 70.152 189.904 69.224 185.744 67.368C181.584 65.512 178.224 62.984 175.664 59.784L184.016 50.568C186.448 53.256 189.104 55.24 191.984 56.52C194.928 57.8 197.904 58.44 200.911 58.44C204.368 58.44 206.992 57.672 208.784 56.136C210.576 54.6 211.472 52.392 211.472 49.512C211.472 47.144 210.768 45.352 209.36 44.136C208.016 42.92 205.712 42.056 202.448 41.544L195.44 40.392C189.424 39.368 185.072 37.16 182.384 33.768C179.696 30.312 178.352 26.12 178.352 21.192C178.352 14.728 180.464 9.736 184.688 6.216C188.912 2.632 194.832 0.839996 202.448 0.839996C207.632 0.839996 212.144 1.64 215.984 3.23999C219.824 4.84 222.928 7.016 225.296 9.768L217.136 18.888C215.344 16.904 213.232 15.368 210.8 14.28C208.368 13.128 205.616 12.552 202.544 12.552C196.08 12.552 192.848 15.208 192.848 20.52C192.848 22.824 193.552 24.552 194.96 25.704C196.432 26.856 198.8 27.72 202.064 28.296L209.072 29.544C214.512 30.504 218.704 32.552 221.648 35.688C224.592 38.824 226.064 43.048 226.064 48.36C226.064 51.496 225.52 54.408 224.432 57.096C223.344 59.72 221.712 62.024 219.536 64.008C217.36 65.928 214.672 67.432 211.472 68.52C208.336 69.608 204.656 70.152 200.432 70.152ZM266.25 13.8V69H251.85V13.8H232.554V1.992H285.546V13.8H266.25Z" fill="black"/>
</svg>
